<svg xmlns="http://www.w3.org/2000/svg" viewBox="0 0 166.34 31.8">
  <path d="M27.397 6.55c-2.17 0-4.664.445-6.272 1.247-.44.241-.602.604-.602.965v1.807c0 .568.443.806.685.806.481 0 .843-.443 1.084-.603 1.487-1.001 2.974-1.69 4.945-1.69 2.449 0 2.812 1.608 2.812 3.58l-.007.074c0 .921-.314 1.092-3.81 1.535-2.131.281-6.995 1.246-6.995 5.626 0 3.617 2.893 5.549 6.271 5.549 1.849 0 3.375-.809 4.663-1.932l.08 1.045c0 .281.202.482.402.482h3.657a.465.465 0 00.483-.482v-12.5c-.001-3.258-1.731-5.509-7.396-5.509zm2.573 14.631c0 .527-1.373 1.941-3.228 1.941-2.139 0-2.946-1.535-2.946-3.068 0-2.178 1.693-4.193 6.174-4.193zM40.516.121c-1.774 0-2.623 1.049-2.623 2.26 0 1.451 1.048 2.42 2.623 2.42 1.574 0 2.542-.97 2.542-2.42 0-1.211-.847-2.26-2.542-2.26zm-2.301 7.384v17.113c0 .277.203.482.404.482h3.874a.468.468 0 00.484-.482V7.505a.47.47 0 00-.484-.486h-3.874c-.201.001-.404.206-.404.486zM.686 24.05c6.778 3.186 16.424 1.332 16.424-6.779 0-7.464-12.791-6.982-12.791-11.584 0-1.855 1.775-3.104 4.034-3.104 2.018 0 3.552.686 5.166 1.859.445.319.728.522 1.089.522.445 0 .565-.283.565-.648V1.98c0-.367-.08-.57-.444-.73C13.357.728 10.936.198 8.272.198 2.907.198 0 3.51 0 7.263c0 8.15 12.59 6.458 12.59 11.986 0 3.35-4.842 5.689-10.45 1.771-.525-.361-.768-.562-1.13-.562-.686 0-.809.365-.809.727v2.057c-.001.363.082.568.485.808zM46.972 7.505v17.113c0 .277.201.482.403.482h3.874a.468.468 0 00.484-.482V10.815c.768-.445 2.381-1.25 3.752-1.25 2.665 0 2.826 1.613 2.826 2.984v12.069c0 .277.201.482.404.482h3.875a.467.467 0 00.482-.482V12.147c0-3.269-1.734-5.53-5.61-5.53-2.219 0-4.56 1.09-5.77 1.818h-.08v-.93a.469.469 0 00-.484-.486h-3.753c-.202.001-.403.206-.403.486zm30.912.123c-5.246-2.183-12.269-1.01-12.269 4.679 0 6.417 10.169 5.085 10.169 8.556 0 2.787-4.802 3.068-8.272.402-.243-.199-.485-.318-.768-.318-.402 0-.645.16-.645.723v1.572c0 .447.12.809.606 1.049 4.478 2.02 12.71 2.062 12.71-5.365 0-6.376-10.29-4.923-10.29-8.11 0-2.622 5.044-2.38 7.951-.406.241.162.563.324.766.324.402 0 .646-.162.646-.726V8.675c.002-.444-.121-.848-.604-1.047zm86.922 0c-5.244-2.183-12.268-1.01-12.268 4.679 0 6.417 10.17 5.085 10.17 8.556 0 2.787-4.803 3.068-8.273.402-.242-.199-.484-.318-.768-.318-.404 0-.645.16-.645.723v1.572c0 .447.121.809.605 1.049 4.477 2.02 12.713 2.062 12.713-5.365 0-6.376-10.291-4.923-10.291-8.11 0-2.622 5.043-2.38 7.949-.406.242.162.564.324.766.324.404 0 .646-.162.646-.726V8.675c.001-.444-.12-.848-.604-1.047zm-39.627 4.8c0-1.937.686-3.147 4.883-2.058.523.121.848.242 1.291.242.281 0 .525-.281.525-.563V7.667c0-.403-.283-.724-.809-.847-2.904-.687-4.68.644-6.174 2.058l-.08-.041V7.505a.47.47 0 00-.484-.486h-3.512c-.201 0-.402.205-.402.486v17.113c0 .277.201.482.402.482h3.873a.468.468 0 00.486-.482v-12.19zm26.955-5.324c1.898 0 4.037-7.104.525-7.104h-1.896c-.443 0-.523.321-.523.563 0 .486 1.207 1.697 1.207 3.351 0 1.693-.643 2.3-.643 2.825 0 .205.201.365.482.365zm-10.209 12.427l-.242-.768-3.834-11.299c-.121-.321-.281-.444-.645-.444h-4.117c-.242 0-.361.123-.361.365 0 .121.037.244.201.646l6.697 16.261c1.131 2.746-2.178 4.723-5.367 3.836-.484-.121-.807-.242-1.25-.242-.281 0-.523.281-.523.562v2.303c0 .486.322 1.049 2.098 1.049 4.277 0 6.576-2.178 8.635-7.305l6.619-16.585c.08-.242.16-.362.16-.524a.362.362 0 00-.361-.365h-2.867c-.281 0-.484.164-.564.444l-3.953 11.299zm-24.979 5.088V7.505c0-.281-.203-.486-.404-.486h-3.873a.468.468 0 00-.484.486v13.801c-.766.443-2.381 1.25-3.752 1.25-2.662 0-2.826-1.609-2.826-2.984V7.505c0-.281-.201-.486-.404-.486h-3.871a.468.468 0 00-.486.486v12.469c0 3.268 1.736 5.527 5.611 5.527 2.217 0 4.559-1.09 5.77-1.812h.08v.93c0 .277.199.482.484.482h3.752c.2 0 .403-.205.403-.482zM81.597.687c0-.285.201-.488.403-.488h3.874c.281 0 .482.203.482.488v8.069-.039c.768-.646 2.543-2.061 5.287-2.061 4.158 0 6.779 3.632 6.779 8.475 0 6.214-4.318 10.331-9.645 10.331-2.904 0-5.043-1.01-6.457-2.1-.604-.443-.725-1.205-.725-1.854V.687zm5.326 22.154c.402.24 1.008.441 2.178.441 2.584 0 4.398-2.662 4.398-7.18 0-1.697-.361-6.462-4.035-6.462-1.451 0-2.502.812-3.107 1.252V21.79c-.001.368.081.727.566 1.051z"/>
</svg>
